# xmcd
#
# Track frame offsets:
# 150
# 13566
# 26318
# 38876
# 50113
# 61751
# 72806
# 83208
# 96126
# 107786
# 120067
# 131969
#
# Disc length: 1899 seconds
#
#
# Revision: 0
# Processed by: cddbd v1.4PL0 Copyright (c) Steve Scherf et al.
# Submitted via: FreeRIP 2.00 
#
DISCID=9507690c
DTITLE=Ray Charles - The Great Ray Charles Disc3
DYEAR=1900
DGENRE=Blues
TTITLE0=Alone In The City
TTITLE1=Can Anyone Ask For More
TTITLE2=Rocking Chair Blues
TTITLE3=Let's Have a Ball
TTITLE4=How Long
TTITLE5=A Sentimental Blues
TTITLE6=Know She's Gone
TTITLE7=Don't Put All Your Dreams in One Bucket
TTITLE8=Ray Charles' Blues
TTITLE9=Honey Honey
TTITLE10=Can't You See Darling
TTITLE11=Ain't That Fine
EXTD=
EXTT0=
EXTT1=
EXTT2=
EXTT3=
EXTT4=
EXTT5=
EXTT6=
EXTT7=
EXTT8=
EXTT9=
EXTT10=
EXTT11=
PLAYORDER=
